# xmcd CD database file
#
# Track frame offsets:
#	150
#	19197
#	42589
#	73010
#	90362
#	144027
#	185447
#	213184
#	242880
#
# Disc length: 3602 seconds
#
# Revision: 0
# Processed by: cddbd v1.5.1PL0 Copyright (c) Steve Scherf et al.
# Submitted via: CDex 1.51
#
DISCID=750e1009
DTITLE=Hector "Costita" Bisignani - Estao Todos Ai
DYEAR=1999
DGENRE=Jazz
TTITLE0=Now
TTITLE1=Estao Todos Ai
TTITLE2=Zanzibar
TTITLE3=Impacto Blues
TTITLE4=Ariela
TTITLE5=Surprise Blues
TTITLE6=Arturo Gold Finger
TTITLE7=Lucia (Odalisca)
TTITLE8=La Maja Brasileira
EXTD=YEAR: 1999
EXTT0=
EXTT1=
EXTT2=
EXTT3=
EXTT4=
EXTT5=
EXTT6=
EXTT7=
EXTT8=
PLAYORDER=
